<mxfile host="65bd71144e">
    <diagram id="nPuJtwp-T5ysxBuTiL1Y" name="ORDER">
        <mxGraphModel dx="746" dy="437" grid="1" gridSize="10" guides="1" tooltips="1" connect="1" arrows="1" fold="1" page="1" pageScale="1" pageWidth="850" pageHeight="1100" math="0" shadow="0">
            <root>
                <mxCell id="0"/>
                <mxCell id="1" parent="0"/>
                <mxCell id="14" style="edgeStyle=orthogonalEdgeStyle;html=1;entryX=0.498;entryY=0.006;entryDx=0;entryDy=0;entryPerimeter=0;fontSize=23;startArrow=block;startFill=1;" edge="1" parent="1" source="3" target="4">
                    <mxGeometry relative="1" as="geometry"/>
                </mxCell>
                <mxCell id="3" value="" style="shape=datastore;whiteSpace=wrap;html=1;" vertex="1" parent="1">
                    <mxGeometry x="350" y="80" width="60" height="60" as="geometry"/>
                </mxCell>
                <mxCell id="12" style="edgeStyle=orthogonalEdgeStyle;html=1;entryX=1;entryY=0.75;entryDx=0;entryDy=0;fontSize=23;exitX=0.976;exitY=0.502;exitDx=0;exitDy=0;exitPerimeter=0;" edge="1" parent="1" source="4" target="9">
                    <mxGeometry relative="1" as="geometry">
                        <Array as="points">
                            <mxPoint x="530" y="275"/>
                            <mxPoint x="530" y="465"/>
                        </Array>
                    </mxGeometry>
                </mxCell>
                <mxCell id="4" value="API" style="html=1;whiteSpace=wrap;aspect=fixed;shape=isoRectangle;fontSize=23;" vertex="1" parent="1">
                    <mxGeometry x="305" y="230" width="150" height="90" as="geometry"/>
                </mxCell>
                <mxCell id="11" style="edgeStyle=orthogonalEdgeStyle;html=1;entryX=0.014;entryY=0.474;entryDx=0;entryDy=0;entryPerimeter=0;fontSize=23;exitX=0;exitY=0.5;exitDx=0;exitDy=0;" edge="1" parent="1" source="9" target="4">
                    <mxGeometry relative="1" as="geometry">
                        <Array as="points">
                            <mxPoint x="230" y="450"/>
                            <mxPoint x="230" y="273"/>
                        </Array>
                    </mxGeometry>
                </mxCell>
                <mxCell id="15" value="VERIFY" style="edgeLabel;html=1;align=center;verticalAlign=middle;resizable=0;points=[];fontSize=23;" vertex="1" connectable="0" parent="11">
                    <mxGeometry x="0.1118" relative="1" as="geometry">
                        <mxPoint y="20" as="offset"/>
                    </mxGeometry>
                </mxCell>
                <mxCell id="9" value="PRODUCT CARD" style="rounded=0;whiteSpace=wrap;html=1;fontSize=23;" vertex="1" parent="1">
                    <mxGeometry x="300" y="420" width="160" height="60" as="geometry"/>
                </mxCell>
                <mxCell id="16" value="VERIFY" style="edgeLabel;html=1;align=center;verticalAlign=middle;resizable=0;points=[];fontSize=23;" vertex="1" connectable="0" parent="1">
                    <mxGeometry x="530" y="360.0044912519105" as="geometry"/>
                </mxCell>
            </root>
        </mxGraphModel>
    </diagram>
</mxfile>